<svg id="图层_1" data-name="图层 1" xmlns="http://www.w3.org/2000/svg" xmlns:xlink="http://www.w3.org/1999/xlink" viewBox="0 0 1600 600"><defs><style>.cls-1{fill:url(#未命名的渐变);}.cls-2,.cls-4{fill:#fff;}.cls-2{fill-rule:evenodd;}.cls-3{isolation:isolate;}</style><linearGradient id="未命名的渐变" y1="302" x2="1600" y2="302" gradientTransform="matrix(1, 0, 0, -1, 0, 602)" gradientUnits="userSpaceOnUse"><stop offset="0" stop-color="#3fa9f5"/><stop offset="0.9" stop-color="#7ac943"/></linearGradient></defs><rect class="cls-1" width="1600" height="600"/><path class="cls-2" d="M458.79,313.49h-25a1,1,0,0,0-1,.91l0,.31q-.75,4.89-2,9.61l-.77,2.76h0l-.34,1.18-.37,1.18-.73,2.19-.44,1.25-.86,2.28-.41,1.06-1.39,3.26h0l-.42.89h0l-1.2,2.55A96.75,96.75,0,0,1,409,364.73l-2.47,2.63-2.84,2.8-.45.41L400.59,373l-1.08.91-2.13,1.75-1.24,1L394,378.16l-1.28.92-2.29,1.56-1.18.78-3.07,1.88-.5.3-3.66,2-1.12.56-2.65,1.3-1.41.64-2.47,1.07-1.5.61-2.55,1-1.44.52-3,1-1.08.34-4.12,1.12-.91.21-3.29.73-1.49.28-2.79.48-1.64.24-2.77.34-1.64.17-3,.22-1.42.09-4.45.11a96.57,96.57,0,1,1,0-193.14l4.45.11,1.42.09,3,.22,1.64.17,2.77.34,1.64.24,2.8.48,1.49.28,3.29.73.91.21,4.12,1.12,1.08.34,3,1,1.44.52,2.55,1,1.5.61,2.48,1.07,1.41.64,2.65,1.3,1.12.56,3.66,2,.49.3,3.07,1.88,1.18.78,2.3,1.56,1.28.92L396,223.3l.93.73h0l3.42,2.81q1.7,1.46,3.31,3l2.23,2.2a1,1,0,0,0,.73.3h32a1,1,0,0,0,.87-1.61,125,125,0,0,0-9-11.7l-3.08-3.33h0l-1-1-1-1s0,0,0,0l-.35-.33-.46-.48q-2.1-2.1-4.29-4.09l-.12-.1-.09-.09-.59-.5-3.68-3.19-.78-.62-.54-.46,0,0-1.15-.87-2.14-1.68L409.6,200l-1-.74-.05,0-.9-.6-1.32-.94L403.66,196l-1.21-.81-.05,0-.45-.26-.61-.39q-2.55-1.54-5.17-3l-.09,0-.07,0c-1.09-.59-2.19-1.16-3.3-1.72l-1.31-.63-.55-.28-.49-.22-1-.49c-1.13-.53-2.27-1-3.41-1.53l-.35-.14-.2-.09-.51-.2-2.41-1-2.1-.79-.59-.23-.3-.1-.53-.2c-1.18-.42-2.37-.83-3.57-1.22l-.88-.27-.45-.15-.63-.18-1.66-.51-3.43-.94-.14,0h0l-.06,0c-1.23-.32-2.47-.61-3.71-.89l-1.54-.32-.63-.15-.52-.09-1.06-.22c-1.26-.24-2.52-.46-3.79-.66l-.45-.06-.26-.05-.59-.08-2.53-.36-2.42-.27-.63-.08-.29,0-.52-.06c-1.29-.12-2.6-.23-3.9-.31l-1,0-.52,0-.67,0-1.71-.08c-1.32,0-2.64-.06-4-.06a123.42,123.42,0,0,0,0,246.84c1.33,0,2.65,0,4-.06l.85,0h.55l.85-.05,1.69-.08,1.91-.15L348,423l.45-.05.68-.05c1.29-.12,2.58-.27,3.87-.43l.14,0h.1l.47-.07,3.12-.44,1-.17.61-.09.77-.15,1.43-.25,2.08-.43.81-.16.35-.08.51-.11c1.24-.28,2.48-.57,3.71-.89l.27-.07.19,0,.66-.19,2.54-.69,1.09-.33.65-.18.68-.23,1.19-.37,2.26-.77.72-.24.24-.09.35-.12c1.18-.42,2.36-.86,3.52-1.32l.39-.16.27-.1.72-.31,2.09-.86,1.19-.53.67-.28.58-.28,1-.43,2.46-1.19.56-.26.14-.07.2-.1c1.11-.56,2.21-1.13,3.3-1.72l.31-.18.51-.27q2.21-1.21,4.35-2.52l.78-.49.45-.26,0,0,.79-.53,2.17-1.38,2.39-1.65.76-.51.05,0,.33-.25.59-.41c1.35-1,2.69-2,4-3l.59-.48.35-.26,0,0,.71-.6,2.18-1.78,2-1.75.72-.61.05,0,.35-.34.65-.58q1.83-1.69,3.6-3.47l.42-.44.25-.24,0,0,.6-.65,2.14-2.23,1.59-1.8.64-.69,0-.05.36-.44.68-.77q1.62-1.9,3.16-3.88l.28-.37.17-.21,0-.05.47-.65,2.05-2.73,1.24-1.81.56-.78.48-.74.56-.81a122.66,122.66,0,0,0,13.4-27.11l.09-.29h0l0-.07.48-1.51,1-3,.11-.38.11-.35.46-1.69.71-2.53.12-.52.16-.59.72-3.24.16-.68h0l.34-1.5c.36-1.82.69-3.66,1-5.51l.53-4.14A1.13,1.13,0,0,0,458.79,313.49Zm-81.58-30.35,1.09,3h27.79l0-.27a69.61,69.61,0,0,0-10.56-25.09l-1.15-1.61H351.71l.48.16A43.5,43.5,0,0,1,377.21,283.14Zm18.28,56.1a69.94,69.94,0,0,0,10.56-25.09l.08-.54H378.39l-1.19,3.25a43.47,43.47,0,0,1-23.05,23.05l-1.69.67h42.08ZM487,284.71l.15,2h26.73v-.22a177.72,177.72,0,0,0-3.08-22.06l-1.08-4.69H482.25l.79,2.77A151.79,151.79,0,0,1,487,284.71Zm.15,28.74-.16,2a150.49,150.49,0,0,1-4,22.22l-.77,2.71H509.7l1.07-4.62a176.11,176.11,0,0,0,3.08-22.06l0-.28H487.14ZM454,259.59l-.16-.43h-29l.6,1.26a96.14,96.14,0,0,1,7.3,24.77l.16,1.22H460l-.67-5.31A123,123,0,0,0,454,259.59Z"/><g class="cls-3"><path class="cls-4" d="M594.51,327.75a37.46,37.46,0,0,1-14.24-14.94,47.59,47.59,0,0,1-.06-43.65,36.5,36.5,0,0,1,14.42-15,46.06,46.06,0,0,1,43.24,0,37.36,37.36,0,0,1,14.24,15,47.24,47.24,0,0,1,.06,43.48,37.19,37.19,0,0,1-14.48,15.11,42.07,42.07,0,0,1-21.5,5.39A42.66,42.66,0,0,1,594.51,327.75Zm37.85-9a27.6,27.6,0,0,0,10.49-11.31A35.59,35.59,0,0,0,646.54,291a36.19,36.19,0,0,0-3.63-16.41,27.66,27.66,0,0,0-10.66-11.49,30.94,30.94,0,0,0-16.06-4.1q-9.5,0-16.17,4.22a27.72,27.72,0,0,0-10.49,11.31A35.63,35.63,0,0,0,585.84,291a36.18,36.18,0,0,0,3.63,16.4,27.11,27.11,0,0,0,10.61,11.54A31.09,31.09,0,0,0,616.19,323Q625.68,323,632.36,318.73Z"/><path class="cls-4" d="M674.49,357.87a5.41,5.41,0,0,1-1.58-3.87V276.78a5.39,5.39,0,0,1,5.39-5.39,5.39,5.39,0,0,1,3.87,1.58,5.1,5.1,0,0,1,1.64,3.81v2.81q8.43-8.79,19.92-8.79a27.69,27.69,0,0,1,24.55,14.65A34.15,34.15,0,0,1,732.21,302a32.47,32.47,0,0,1-4,16.52,28.42,28.42,0,0,1-10.49,10.84,27.21,27.21,0,0,1-14,3.81q-11.49,0-19.92-8.79V354a5.4,5.4,0,0,1-5.51,5.51A5.13,5.13,0,0,1,674.49,357.87Zm41.72-40.49q5.1-5.56,5.1-15.41t-5.1-15.41q-5.1-5.56-14-5.57a22.18,22.18,0,0,0-9.91,2.35,29.53,29.53,0,0,0-8.49,6.33v24.61a29.67,29.67,0,0,0,8.49,6.32,22,22,0,0,0,9.91,2.35Q711.11,323,716.21,317.38Z"/><path class="cls-4" d="M751.25,324.94q-8-8.2-8-23a39.88,39.88,0,0,1,3-15.35,25.51,25.51,0,0,1,9.61-11.6,27.61,27.61,0,0,1,15.47-4.22,28.18,28.18,0,0,1,15.11,4,27.21,27.21,0,0,1,9.5,10.73,32.75,32.75,0,0,1,3.39,14.94,5.3,5.3,0,0,1-5.5,5.39H754.24q1.05,8.32,6.27,12.71t14.12,4.4a36.67,36.67,0,0,0,8.38-.88,34.26,34.26,0,0,0,7.44-2.76,4.23,4.23,0,0,1,2.11-.46,4.83,4.83,0,0,1,3.34,1.34,4.39,4.39,0,0,1,1.46,3.34c0,1.8-1.05,3.28-3.16,4.46a44.47,44.47,0,0,1-9.38,3.92,42.57,42.57,0,0,1-11.13,1.23Q759.28,333.14,751.25,324.94Zm37.21-29.53a15.5,15.5,0,0,0-2.82-7.85,16.58,16.58,0,0,0-6.38-5.63,17.71,17.71,0,0,0-7.91-1.87,19.91,19.91,0,0,0-7.85,1.75,15.38,15.38,0,0,0-6.51,5.92,19.88,19.88,0,0,0-2.75,9.2h32.81C788.06,296.93,788.53,296.43,788.46,295.41Z"/><path class="cls-4" d="M814.77,331a5.2,5.2,0,0,1-1.59-3.81V276.89a5.36,5.36,0,0,1,1.59-3.86,5.06,5.06,0,0,1,3.8-1.64,5.6,5.6,0,0,1,5.51,5.5v4.46a37.55,37.55,0,0,1,10-7.86,25,25,0,0,1,11.72-2.69,21.16,21.16,0,0,1,11.37,3.05,20,20,0,0,1,7.21,8.32,26.8,26.8,0,0,1,2.51,11.72v33.28a5.1,5.1,0,0,1-1.64,3.81,5.39,5.39,0,0,1-3.86,1.58,5.39,5.39,0,0,1-5.39-5.39V295.06q0-14.19-12.78-14.18a18.68,18.68,0,0,0-10.13,2.81,37.1,37.1,0,0,0-9,8.32v35.16a5.13,5.13,0,0,1-1.64,3.81,5.4,5.4,0,0,1-3.87,1.58A5.19,5.19,0,0,1,814.77,331Z"/><path class="cls-4" d="M886.6,331a5.23,5.23,0,0,1-1.58-3.81V254.86A5.43,5.43,0,0,1,886.6,251a5.13,5.13,0,0,1,3.81-1.64,5.6,5.6,0,0,1,5.51,5.51v31.06H940.1V254.86a5.39,5.39,0,0,1,1.58-3.87,5.1,5.1,0,0,1,3.81-1.64,5.62,5.62,0,0,1,5.51,5.51v72.31a5.11,5.11,0,0,1-1.65,3.81,5.39,5.39,0,0,1-3.86,1.58,5.39,5.39,0,0,1-5.39-5.39V296.11H895.92v31.06a5.13,5.13,0,0,1-1.64,3.81,5.43,5.43,0,0,1-3.87,1.58A5.23,5.23,0,0,1,886.6,331Z"/><path class="cls-4" d="M977.25,331a16.17,16.17,0,0,1-7.15-6.21,17.22,17.22,0,0,1-2.58-9.37q0-9.15,7.09-14.12t20-5h14.06v-.82q0-7.5-3.69-11t-11.89-3.46a40.94,40.94,0,0,0-7.62.65,63.52,63.52,0,0,0-8,2.16l-1.52.24a4.26,4.26,0,0,1-3.11-1.35,4.39,4.39,0,0,1-1.35-3.22,4.6,4.6,0,0,1,3.17-4.57,51,51,0,0,1,20.27-4.22,27.43,27.43,0,0,1,13.83,3.28,20.52,20.52,0,0,1,8.08,8.38,24.72,24.72,0,0,1,2.7,11.54v33.17a5.13,5.13,0,0,1-1.64,3.81,5.41,5.41,0,0,1-3.87,1.58,5.39,5.39,0,0,1-5.39-5.39v-2.82q-8.43,8.79-21.91,8.79A21.8,21.8,0,0,1,977.25,331Zm23.26-9.9a26.79,26.79,0,0,0,8.14-6.27v-9.72H996q-17.58,0-17.58,9.14t12.3,9.25A21.47,21.47,0,0,0,1000.51,321.13Z"/><path class="cls-4" d="M1038.83,331a5.19,5.19,0,0,1-1.58-3.81V276.89a5.35,5.35,0,0,1,1.58-3.86,5.06,5.06,0,0,1,3.81-1.64,5.6,5.6,0,0,1,5.5,5.5v4.69q8.08-10.79,18.29-10.78h.58a5,5,0,0,1,3.75,1.58,5.29,5.29,0,0,1,1.52,3.81,4.78,4.78,0,0,1-1.58,3.69,5.53,5.53,0,0,1-3.92,1.47h-.59a20.23,20.23,0,0,0-10.14,2.63,23.59,23.59,0,0,0-7.91,7.56v35.63a5.1,5.1,0,0,1-1.64,3.81,5.39,5.39,0,0,1-3.86,1.58A5.19,5.19,0,0,1,1038.83,331Z"/><path class="cls-4" d="M1169.84,282.4a28.06,28.06,0,0,1,2.17,11v33.75a5.13,5.13,0,0,1-1.64,3.81,5.4,5.4,0,0,1-3.87,1.58,5.39,5.39,0,0,1-5.39-5.39V295.53q0-7.86-2.75-11.25t-9.08-3.4a15.53,15.53,0,0,0-9.5,2.87,30.14,30.14,0,0,0-7.26,8.26v35.16a5.13,5.13,0,0,1-1.64,3.81,5.43,5.43,0,0,1-3.87,1.58,5.39,5.39,0,0,1-5.39-5.39V295.53q0-7.86-2.75-11.25t-9.09-3.4a15.5,15.5,0,0,0-9.49,2.87A30,30,0,0,0,1093,292v35.16a5.13,5.13,0,0,1-1.64,3.81,5.43,5.43,0,0,1-3.87,1.58,5.39,5.39,0,0,1-5.39-5.39V276.89a5.39,5.39,0,0,1,1.58-3.86,5.08,5.08,0,0,1,3.81-1.64,5.6,5.6,0,0,1,5.51,5.5v4.34a28,28,0,0,1,8.32-7.68,22.35,22.35,0,0,1,11.48-2.75,18.76,18.76,0,0,1,11.08,3.34,19,19,0,0,1,6.85,8.61q7.26-12,21.56-11.95,6.79,0,11.14,3.28A19.67,19.67,0,0,1,1169.84,282.4Z"/><path class="cls-4" d="M1200.37,329.28a27.38,27.38,0,0,1-10.55-11.14,37,37,0,0,1,0-32.46,26.45,26.45,0,0,1,10.61-11,31.49,31.49,0,0,1,15.76-3.87,31.16,31.16,0,0,1,15.7,3.87,27.21,27.21,0,0,1,10.67,11.07,34.21,34.21,0,0,1,3.75,16.23,33.82,33.82,0,0,1-3.75,16.17,27,27,0,0,1-10.72,11.14,34,34,0,0,1-31.47,0Zm25.08-8.32a17.22,17.22,0,0,0,7.26-7.21,24.2,24.2,0,0,0,2.7-11.9q0-7.38-2.81-12a17.71,17.71,0,0,0-6.86-6.8,19.55,19.55,0,0,0-9.55-2.34,21.35,21.35,0,0,0-9.26,2.11,17.3,17.3,0,0,0-7.26,7.15,23.84,23.84,0,0,0-2.7,11.83q0,7.5,2.81,12.07a17.43,17.43,0,0,0,6.86,6.92,19.58,19.58,0,0,0,9.55,2.34A20.52,20.52,0,0,0,1225.45,321Z"/><path class="cls-4" d="M1262.54,331a5.19,5.19,0,0,1-1.58-3.81V276.89a5.35,5.35,0,0,1,1.58-3.86,5.06,5.06,0,0,1,3.81-1.64,5.6,5.6,0,0,1,5.5,5.5v4.46a37.74,37.74,0,0,1,10-7.86,25,25,0,0,1,11.71-2.69,21.16,21.16,0,0,1,11.37,3.05,19.89,19.89,0,0,1,7.21,8.32,26.81,26.81,0,0,1,2.52,11.72v33.28A5.13,5.13,0,0,1,1313,331a5.43,5.43,0,0,1-3.87,1.58,5.39,5.39,0,0,1-5.39-5.39V295.06q0-14.19-12.77-14.18a18.74,18.74,0,0,0-10.14,2.81,37.1,37.1,0,0,0-9,8.32v35.16a5.1,5.1,0,0,1-1.64,3.81,5.39,5.39,0,0,1-3.86,1.58A5.19,5.19,0,0,1,1262.54,331Z"/><path class="cls-4" d="M1342.17,357.93a5.16,5.16,0,0,1-1.53-3.69,5.22,5.22,0,0,1,.36-1.88l7.61-19.57-22-53.67a6,6,0,0,1-.47-2.23,5.39,5.39,0,0,1,1.58-3.86,5.1,5.1,0,0,1,3.81-1.64,5.42,5.42,0,0,1,3,.93,5.13,5.13,0,0,1,2,2.46l17.93,44.42L1372.75,275q1.65-3.63,5-3.63a5.06,5.06,0,0,1,3.81,1.64,5.35,5.35,0,0,1,1.58,3.86,5.54,5.54,0,0,1-.35,2l-32,76.87c-1.1,2.5-2.77,3.75-5,3.75A4.86,4.86,0,0,1,1342.17,357.93Z"/></g><path class="cls-4" d="M536,193.86l9,12.55h-4.34l-8.45-11.95h-5.77v11.95H523V177.25h9a12.62,12.62,0,0,1,5.31,1.07,8.47,8.47,0,0,1,3.63,3.05,8.08,8.08,0,0,1,1.29,4.52,7.79,7.79,0,0,1-1.63,5A9,9,0,0,1,536,193.86Zm-4.54-13.5h-5v11h5a7.88,7.88,0,0,0,5.16-1.49,4.94,4.94,0,0,0,1.77-4,5,5,0,0,0-1.77-4A7.72,7.72,0,0,0,531.5,180.36Z"/><path class="cls-4" d="M532,219.4a26.65,26.65,0,1,1,26.65-26.64A26.67,26.67,0,0,1,532,219.4Zm0-50.29a23.65,23.65,0,1,0,23.65,23.65A23.68,23.68,0,0,0,532,169.11Z"/><path class="cls-4" d="M1427.21,243.15l9,12.55h-4.35l-8.44-11.95h-5.78V255.7h-3.54V226.54h9a12.55,12.55,0,0,1,5.32,1.08,8.43,8.43,0,0,1,3.62,3,8,8,0,0,1,1.3,4.52,7.83,7.83,0,0,1-1.64,5A9,9,0,0,1,1427.21,243.15Zm-4.54-13.5h-5v11h5a7.79,7.79,0,0,0,5.16-1.5,4.92,4.92,0,0,0,1.77-4,5.06,5.06,0,0,0-1.77-4A7.68,7.68,0,0,0,1422.67,229.65Z"/><path class="cls-4" d="M1423.14,268.7a26.65,26.65,0,1,1,26.64-26.65A26.68,26.68,0,0,1,1423.14,268.7Zm0-50.29a23.65,23.65,0,1,0,23.64,23.64A23.68,23.68,0,0,0,1423.14,218.41Z"/></svg>