<?xml version="1.0" encoding="utf-8"?>
<!-- Generator: Adobe Illustrator 26.4.1, SVG Export Plug-In . SVG Version: 6.00 Build 0)  -->
<svg version="1.1" id="图层_1" xmlns="http://www.w3.org/2000/svg" xmlns:xlink="http://www.w3.org/1999/xlink" x="0px" y="0px"
	 viewBox="0 0 200 50" style="enable-background:new 0 0 200 50;" xml:space="preserve">
<style type="text/css">
	.st0{fill-rule:evenodd;clip-rule:evenodd;fill:#FF9500;}
	.st1{fill-rule:evenodd;clip-rule:evenodd;fill:#FBBC04;}
	.st2{fill-rule:evenodd;clip-rule:evenodd;fill:#4285F4;}
	.st3{fill-rule:evenodd;clip-rule:evenodd;fill:#34A853;}
	.st4{fill-rule:evenodd;clip-rule:evenodd;fill:#EA4335;}
</style>
<path class="st0" d="M25.5,27c3.3,0,6-2.7,6-6s-2.7-6-6-6s-6,2.7-6,6S22.2,27,25.5,27z M25.5,33c6.6,0,12-5.4,12-12s-5.4-12-12-12
	c-6.6,0-12,5.4-12,12S18.9,33,25.5,33z"/>
<path class="st1" d="M31.5,21c0,3.3-2.7,6-6,6s-6-2.7-6-6s2.7-6,6-6S31.5,17.7,31.5,21z M37.5,21c0,6.6-5.4,12-12,12
	c-2.2,0-4.2-0.6-6-1.6V21c0-1.7-1.3-3-3-3c-1.7,0-3,1.3-3,3c0-6.6,5.4-12,12-12C32.1,9,37.5,14.4,37.5,21z M13.5,21v17
	c0,1.7,1.3,3,3,3c1.7,0,3-1.3,3-3l0,0v-6.6C15.8,29.3,13.5,25.3,13.5,21z"/>
<path class="st2" d="M31.5,21c0-3.3-2.7-6-6-6V9c6.6,0,12,5.4,12,12s-5.4,12-12,12v-6C28.8,27,31.5,24.3,31.5,21z"/>
<path class="st3" d="M25.5,27c3.3,0,6-2.7,6-6h6c0,6.6-5.4,12-12,12V27z"/>
<path class="st4" d="M25.5,15c-3.3,0-6,2.7-6,6h-6c0-6.6,5.4-12,12-12V15z"/>
<path d="M93.6,18.4v3.8h5.7v2.1h-5.7v3.8h6.3v2.1h-8.5v-14h8.5v2.1H93.6z M104.3,25.4l-3.3-4.7h2.5l2.1,3h0.1l1.9-3h2.6l-3.3,4.7
	l3.4,4.9h-2.6l-2.1-3.1h-0.1l-2.1,3.1h-2.6L104.3,25.4z M111.4,20.7h2.1v1.2h0.1c0.3-0.4,0.7-0.8,1.2-1.1c0.5-0.3,1.2-0.5,1.9-0.5
	c0.6,0,1.2,0.1,1.7,0.4c0.6,0.2,1,0.6,1.5,1.1c0.4,0.5,0.7,1,1,1.6c0.2,0.6,0.4,1.3,0.4,2s-0.1,1.4-0.4,2c-0.2,0.6-0.6,1.1-1,1.6
	c-0.4,0.5-0.9,0.8-1.5,1.1c-0.5,0.2-1.1,0.4-1.7,0.4c-0.7,0-1.4-0.1-1.9-0.4c-0.5-0.3-0.9-0.7-1.2-1.1h-0.1l0.1,1.3v4.1h-2.2
	C111.4,34.4,111.4,20.7,111.4,20.7z M116.3,28.5c0.4,0,0.7-0.1,1.1-0.2c0.4-0.1,0.7-0.3,0.9-0.6c0.3-0.3,0.5-0.6,0.6-1
	c0.2-0.4,0.2-0.8,0.2-1.3c0-0.5-0.1-0.9-0.2-1.3c-0.1-0.4-0.4-0.7-0.6-1c-0.2-0.3-0.6-0.5-0.9-0.6c-0.3-0.1-0.7-0.2-1.1-0.2
	c-0.4,0-0.7,0.1-1.1,0.2c-0.3,0.1-0.6,0.3-0.9,0.6c-0.2,0.3-0.4,0.6-0.6,1c-0.2,0.4-0.2,0.8-0.2,1.3c0,0.5,0.1,0.9,0.2,1.3
	c0.2,0.4,0.4,0.7,0.6,1c0.3,0.3,0.6,0.5,0.9,0.6C115.5,28.5,115.9,28.5,116.3,28.5z M131.7,27.9c-0.4,0.7-1,1.4-1.7,1.9
	c-0.7,0.5-1.7,0.7-2.7,0.7c-0.7,0-1.4-0.1-2-0.4c-0.6-0.3-1.1-0.6-1.6-1.1c-0.4-0.5-0.8-1-1-1.6c-0.3-0.7-0.4-1.3-0.4-2
	c0-0.7,0.1-1.3,0.4-2c0.2-0.6,0.6-1.2,1-1.6c0.4-0.5,0.9-0.8,1.5-1.1c0.6-0.3,1.3-0.4,2-0.4c0.7,0,1.4,0.1,2,0.4
	c0.6,0.2,1.1,0.6,1.5,1c0.4,0.5,0.7,1,0.9,1.6c0.2,0.6,0.3,1.3,0.3,2v0.2c0,0.1,0,0.1,0,0.2c0,0.1,0,0.1,0,0.2h-7.4
	c0,0.5,0.1,0.9,0.3,1.2c0.2,0.3,0.4,0.6,0.7,0.8c0.3,0.2,0.6,0.4,0.9,0.5c0.3,0.1,0.6,0.2,1,0.2c0.6,0,1.1-0.1,1.5-0.5
	c0.4-0.3,0.7-0.7,1-1.1L131.7,27.9L131.7,27.9z M129.7,24.3c0-0.2-0.1-0.4-0.2-0.6c-0.1-0.3-0.2-0.5-0.4-0.7
	c-0.2-0.2-0.5-0.4-0.8-0.5c-0.3-0.1-0.7-0.2-1.2-0.2c-0.6,0-1.2,0.2-1.6,0.6c-0.4,0.4-0.7,0.9-0.9,1.5H129.7z M133.5,20.7h2v1.4h0.1
	c0.1-0.2,0.3-0.5,0.5-0.7c0.2-0.2,0.4-0.4,0.7-0.5c0.3-0.2,0.5-0.3,0.8-0.4c0.3-0.1,0.5-0.1,0.8-0.1c0.3,0,0.6,0,0.8,0.1
	c0.2,0.1,0.4,0.1,0.6,0.2l-0.6,2c-0.2-0.1-0.3-0.1-0.5-0.1c-0.2,0-0.4-0.1-0.6-0.1c-0.4,0-0.7,0.1-1,0.2c-0.3,0.1-0.5,0.3-0.8,0.6
	c-0.2,0.2-0.4,0.5-0.5,0.9c-0.1,0.3-0.2,0.7-0.2,1.1v5h-2.2C133.5,30.2,133.5,20.7,133.5,20.7z M142.3,19c-0.8,0-1.4-0.6-1.5-1.4
	c0,0,0,0,0-0.1c0-0.8,0.6-1.4,1.4-1.5c0,0,0,0,0.1,0c0.4,0,0.7,0.1,1,0.4c0.3,0.3,0.4,0.6,0.4,1s-0.1,0.7-0.4,1
	C143,18.8,142.7,19,142.3,19L142.3,19z M141.2,30.2v-9.6h2.2v9.6L141.2,30.2L141.2,30.2z M154.5,27.9c-0.4,0.7-1,1.4-1.7,1.9
	c-0.7,0.5-1.7,0.7-2.7,0.7c-0.7,0-1.4-0.1-2-0.4c-0.6-0.3-1.1-0.6-1.6-1.1c-0.4-0.5-0.8-1-1-1.6c-0.3-0.7-0.4-1.3-0.4-2
	c0-0.7,0.1-1.3,0.4-2c0.2-0.6,0.6-1.2,1-1.6c0.4-0.5,0.9-0.8,1.5-1.1c0.6-0.3,1.3-0.4,2-0.4c0.7,0,1.4,0.1,2,0.4
	c0.6,0.2,1.1,0.6,1.5,1c0.4,0.4,0.7,1,0.9,1.6c0.2,0.7,0.3,1.4,0.3,2v0.2c0,0.1,0,0.1,0,0.2c0,0.1,0,0.1,0,0.2h-7.4
	c0,0.5,0.1,0.9,0.3,1.2c0.2,0.3,0.4,0.6,0.7,0.8c0.3,0.2,0.6,0.4,0.9,0.5c0.3,0.1,0.6,0.2,1,0.2c0.6,0,1.1-0.1,1.5-0.5
	c0.4-0.3,0.7-0.7,1-1.1C152.6,27,154.5,27.9,154.5,27.9z M152.5,24.3c0-0.2-0.1-0.4-0.2-0.6c-0.1-0.3-0.2-0.5-0.4-0.7
	c-0.2-0.2-0.5-0.4-0.8-0.5c-0.3-0.1-0.7-0.2-1.2-0.2c-0.6,0-1.2,0.2-1.6,0.6c-0.4,0.4-0.7,0.9-0.9,1.5H152.5L152.5,24.3z M158.3,22
	h0.1c0.3-0.5,0.7-0.8,1.2-1.1c0.5-0.3,1.2-0.5,1.8-0.5c1.2,0,2.1,0.4,2.7,1.1c0.6,0.7,0.9,1.7,0.9,2.9v5.9h-2.2v-5.6
	c0-0.8-0.2-1.4-0.6-1.7c-0.4-0.3-0.9-0.5-1.5-0.5c-0.4,0-0.7,0.1-1,0.2c-0.3,0.2-0.5,0.4-0.7,0.6c-0.2,0.3-0.4,0.6-0.5,0.9
	c-0.1,0.3-0.2,0.7-0.2,1.1v5h-2.2v-9.6h2.1V22L158.3,22z M176,27.8c-0.2,0.4-0.4,0.7-0.7,1.1c-0.3,0.3-0.6,0.6-0.9,0.9
	c-0.4,0.3-0.8,0.5-1.2,0.6c-0.5,0.1-1,0.2-1.5,0.2c-0.7,0-1.4-0.1-2-0.4c-0.6-0.2-1.1-0.6-1.6-1.1c-0.4-0.5-0.8-1-1-1.6
	c-0.3-0.6-0.4-1.3-0.4-2c0-0.7,0.1-1.4,0.4-2c0.2-0.6,0.6-1.2,1-1.6c0.4-0.5,1-0.8,1.6-1.1c0.6-0.3,1.3-0.4,2-0.4
	c0.6,0,1.1,0.1,1.5,0.2c0.5,0.1,0.9,0.3,1.2,0.6c0.4,0.2,0.7,0.5,0.9,0.9c0.3,0.3,0.5,0.7,0.6,1l-2,0.8c-0.2-0.5-0.5-0.9-0.9-1.2
	c-0.4-0.3-0.9-0.4-1.5-0.4c-0.4,0-0.7,0.1-1.1,0.2c-0.3,0.1-0.6,0.4-0.9,0.6c-0.2,0.3-0.4,0.6-0.6,1c-0.1,0.4-0.2,0.8-0.2,1.3
	c0,0.5,0.1,0.9,0.2,1.3c0.2,0.4,0.4,0.7,0.6,1c0.3,0.3,0.6,0.5,0.9,0.6c0.3,0.1,0.7,0.2,1.1,0.2c0.6,0,1.1-0.1,1.5-0.4
	c0.4-0.3,0.8-0.7,1-1.2L176,27.8L176,27.8z M186.3,27.9c-0.4,0.8-1,1.4-1.7,1.9c-0.7,0.5-1.7,0.7-2.7,0.7c-0.7,0-1.4-0.1-2-0.4
	c-0.6-0.3-1.1-0.6-1.6-1.1c-0.4-0.5-0.8-1-1-1.6c-0.3-0.7-0.4-1.3-0.4-2c0-0.7,0.1-1.3,0.4-2c0.2-0.6,0.6-1.1,1-1.6
	c0.4-0.5,0.9-0.8,1.5-1.1c0.6-0.3,1.3-0.4,2-0.4c0.7,0,1.4,0.1,2,0.4c0.6,0.2,1.1,0.6,1.5,1c0.4,0.4,0.7,1,0.9,1.6
	c0.2,0.7,0.3,1.4,0.3,2v0.2c0,0.1,0,0.1,0,0.2c0,0.1,0,0.1,0,0.2h-7.4c0,0.5,0.1,0.9,0.3,1.2c0.2,0.3,0.4,0.6,0.7,0.8
	c0.3,0.2,0.6,0.4,0.9,0.5c0.3,0.1,0.6,0.2,1,0.2c0.6,0,1.1-0.1,1.5-0.5c0.4-0.3,0.7-0.7,1-1.1C184.5,27,186.3,27.9,186.3,27.9z
	 M184.3,24.3c0-0.2-0.1-0.4-0.2-0.6c-0.1-0.3-0.2-0.5-0.4-0.7c-0.2-0.2-0.5-0.4-0.8-0.5c-0.3-0.1-0.7-0.2-1.2-0.2
	c-0.6,0-1.2,0.2-1.6,0.6c-0.4,0.4-0.7,0.9-0.9,1.5H184.3L184.3,24.3z M49.5,30.2v-14h4.9c0.7,0,1.3,0.1,1.9,0.3
	c0.6,0.2,1.1,0.5,1.5,0.9c0.4,0.4,0.8,0.9,1,1.4c0.2,0.5,0.4,1.1,0.4,1.8c0,0.7-0.1,1.3-0.4,1.8c-0.2,0.5-0.6,1-1,1.4
	c-0.4,0.4-1,0.7-1.5,0.9c-0.6,0.2-1.2,0.3-1.9,0.3h-2.3v5.1H49.5z M54.5,22.6c0.7,0,1.2-0.2,1.6-0.6c0.4-0.4,0.5-0.8,0.5-1.3
	c0-0.2,0-0.5-0.1-0.7c-0.1-0.2-0.2-0.4-0.4-0.6c-0.2-0.2-0.4-0.3-0.6-0.4c-0.3-0.1-0.6-0.2-0.9-0.2h-2.3v3.8
	C52.1,22.6,54.5,22.6,54.5,22.6z M62.2,19.3c-0.2,0-0.4,0-0.6-0.1c-0.2-0.1-0.4-0.2-0.5-0.4c-0.1-0.2-0.3-0.3-0.4-0.5
	c-0.1-0.2-0.1-0.4-0.1-0.6c0-0.2,0-0.5,0.1-0.6c0.1-0.2,0.2-0.4,0.4-0.5c0.1-0.2,0.3-0.3,0.5-0.4c0.2-0.1,0.4-0.1,0.6-0.1
	c0.5,0,0.8,0.2,1.2,0.5c0.3,0.3,0.5,0.7,0.5,1.2c0,0.5-0.2,0.8-0.5,1.2C63,19.1,62.6,19.3,62.2,19.3L62.2,19.3z M60.9,30.2v-9.6h2.6
	v9.6L60.9,30.2L60.9,30.2z M68.2,25.4l-3.3-4.7h3l1.7,2.7h0.1l1.6-2.7h3.1l-3.4,4.7l3.4,4.9h-3l-1.8-2.7h-0.1l-1.7,2.7h-3L68.2,25.4
	z M84.6,27.9c-0.4,0.8-1,1.4-1.8,1.9c-0.7,0.5-1.7,0.7-2.7,0.7c-0.7,0-1.4-0.1-2-0.4c-0.6-0.3-1.1-0.6-1.6-1.1
	c-0.5-0.5-0.8-1-1.1-1.6c-0.3-0.7-0.4-1.3-0.4-2c0-0.7,0.1-1.3,0.4-2c0.2-0.6,0.6-1.2,1-1.6c0.4-0.5,1-0.8,1.6-1.1
	c0.6-0.3,1.3-0.4,2-0.4c0.8,0,1.5,0.1,2.1,0.4c0.6,0.2,1.1,0.6,1.5,1.1c0.4,0.4,0.7,1,0.9,1.6c0.2,0.6,0.3,1.3,0.3,2v0.2
	c0,0.1,0,0.1,0,0.2c0,0.1,0,0.1,0,0.2h-7.2c0.1,0.4,0.2,0.7,0.3,1c0.2,0.3,0.4,0.5,0.6,0.7c0.2,0.2,0.5,0.3,0.8,0.4
	c0.3,0.1,0.6,0.1,0.9,0.1c0.6,0,1.1-0.1,1.4-0.4c0.4-0.3,0.7-0.6,0.9-1L84.6,27.9L84.6,27.9z M82.3,24.2c0-0.2-0.1-0.4-0.2-0.6
	c-0.1-0.2-0.2-0.4-0.4-0.6c-0.2-0.2-0.4-0.3-0.7-0.4c-0.3-0.1-0.6-0.2-1-0.2c-0.5,0-1,0.2-1.4,0.5c-0.4,0.3-0.7,0.7-0.9,1.3
	C77.6,24.2,82.3,24.2,82.3,24.2z M86.4,30.2v-14h2.6v14H86.4z"/>
</svg>
