<?xml version="1.0" standalone="no"?>
<!DOCTYPE svg PUBLIC "-//W3C//DTD SVG 20010904//EN"
 "http://www.w3.org/TR/2001/REC-SVG-20010904/DTD/svg10.dtd">
<svg version="1.0" xmlns="http://www.w3.org/2000/svg"
 width="512.000000pt" height="512.000000pt" viewBox="0 0 512.000000 512.000000"
 preserveAspectRatio="xMidYMid meet">
<metadata>
Created by potrace 1.14, written by Peter Selinger 2001-2017
</metadata>
<g transform="translate(0.000000,512.000000) scale(0.100000,-0.100000)"
fill="#000000" stroke="none">
<path d="M2381 4846 c-641 -57 -1184 -106 -1208 -110 -62 -8 -144 -50 -193
-97 -49 -47 -112 -175 -136 -271 -15 -62 -12 -104 145 -1903 89 -1012 166
-1883 171 -1935 23 -217 156 -350 349 -350 61 0 2281 190 2406 206 115 15 218
79 269 167 31 54 75 188 82 252 8 71 -322 3824 -342 3894 -41 142 -162 236
-318 246 -34 2 -585 -42 -1225 -99z m1300 -121 c25 -16 42 -38 53 -67 11 -30
46 -391 116 -1203 56 -638 130 -1490 165 -1894 60 -680 63 -736 49 -769 -20
-48 -50 -79 -88 -92 -17 -5 -418 -44 -891 -85 -473 -41 -1015 -89 -1204 -105
-261 -23 -351 -28 -376 -20 -34 11 -88 62 -99 95 -4 10 -34 323 -66 695 -224
2552 -270 3082 -270 3115 0 54 36 111 84 134 34 16 187 32 926 96 487 42 1025
89 1195 105 171 15 324 26 340 23 17 -3 46 -15 66 -28z"/>
<path d="M3238 4179 c-10 -5 -18 -17 -18 -24 0 -11 -12 -15 -42 -16 -60 0
-137 -14 -149 -26 -15 -15 1 -64 25 -73 11 -5 15 -9 9 -9 -16 -1 -17 -52 -2
-214 14 -164 13 -162 46 -165 46 -3 57 11 54 67 l-2 51 51 0 c49 0 50 -1 50
-30 0 -35 27 -54 65 -44 21 5 25 12 25 45 0 37 2 39 31 39 17 0 39 5 50 10 16
9 19 7 19 -10 0 -17 -6 -20 -41 -20 -43 0 -42 3 -24 -57 5 -19 13 -23 50 -23
62 0 93 14 101 47 7 27 -12 301 -23 329 -3 8 -17 15 -32 15 l-26 2 25 4 c14 2
30 11 36 19 15 19 5 64 -15 65 -31 3 -126 -2 -153 -7 -20 -4 -28 -1 -33 15 -7
23 -47 28 -77 10z m160 -116 c-10 -2 -28 -2 -40 0 -13 2 -5 4 17 4 22 1 32 -1
23 -4z m-230 -20 c-10 -2 -26 -2 -35 0 -10 3 -2 5 17 5 19 0 27 -2 18 -5z
m266 -100 c11 -69 8 -83 -16 -83 -21 1 -21 2 -5 11 21 12 22 52 2 69 -19 16
-20 40 -1 40 8 0 16 -15 20 -37z m-126 15 c-3 -7 -11 -13 -18 -13 -7 0 -15 6
-17 13 -3 7 4 12 17 12 13 0 20 -5 18 -12z m-131 -17 c2 -21 -23 -36 -33 -20
-8 14 3 39 19 39 7 0 13 -9 14 -19z m33 -96 c0 -2 -13 -5 -30 -7 -19 -3 -30 0
-30 7 0 7 11 10 30 7 17 -2 30 -5 30 -7z"/>
<path d="M2841 4113 c-41 -14 -76 -22 -78 -17 -11 30 -22 36 -57 30 -33 -6
-36 -10 -36 -41 0 -28 -4 -35 -20 -35 -13 0 -20 7 -20 19 0 34 -12 51 -35 51
-43 0 -55 -10 -55 -47 0 -26 -5 -36 -20 -40 -41 -11 -37 -83 6 -83 21 0 24 -5
24 -35 0 -28 -5 -38 -25 -47 -38 -17 -27 -88 14 -88 34 0 43 -85 11 -95 -40
-13 -15 -85 30 -85 31 0 67 21 78 44 6 14 7 52 2 101 -8 85 -7 95 15 95 13 0
16 -17 31 -157 5 -51 9 -62 27 -67 31 -8 34 -8 51 10 17 17 121 23 167 10 18
-5 30 -3 40 7 13 12 13 33 3 143 -7 71 -12 130 -13 132 -1 1 -11 2 -23 2 -22
1 -22 1 4 15 45 25 50 107 7 118 -12 3 -18 10 -15 15 8 14 -14 72 -27 71 -7 0
-46 -12 -86 -26z m67 -90 c-2 -14 -17 -19 -66 -23 -35 -3 -66 -3 -69 0 -6 6
94 38 120 39 12 1 17 -5 15 -16z m-218 -73 c0 -6 15 -19 33 -30 27 -17 29 -20
10 -20 -12 0 -28 -3 -36 -6 -9 -3 -16 3 -20 16 -3 12 -10 19 -16 16 -12 -8
-24 10 -16 24 8 13 45 13 45 0z m209 -124 c-2 -2 -31 -6 -64 -10 -41 -4 -55
-3 -45 4 13 9 119 15 109 6z m-11 -93 c-16 -2 -40 -2 -55 0 -16 2 -3 4 27 4
30 0 43 -2 28 -4z"/>
<path d="M2245 4083 c-99 -8 -105 -11 -105 -48 0 -32 -2 -35 -30 -35 -26 0
-30 4 -30 28 0 41 -13 54 -51 50 -32 -3 -34 -5 -37 -45 -2 -26 -8 -43 -16 -43
-7 0 -20 -6 -30 -13 -28 -20 -13 -77 20 -77 31 0 31 -20 -1 -88 l-25 -53 21
-41 21 -42 18 24 c17 23 17 22 24 -46 9 -90 15 -98 60 -90 27 5 36 12 36 27 0
21 0 21 34 -1 l35 -21 15 23 c43 66 49 105 43 250 -5 118 -4 140 9 145 8 3 18
3 21 -1 3 -3 12 -74 19 -158 16 -177 19 -191 40 -212 33 -34 130 -12 141 32 6
24 -2 130 -10 139 -3 2 -17 5 -33 6 -22 2 -29 -3 -34 -23 -3 -14 -12 44 -19
130 -6 85 -14 163 -17 173 -5 17 -20 19 -119 10z m-95 -187 c0 -13 3 -32 7
-42 6 -16 3 -16 -28 3 -52 33 -49 57 9 62 6 0 12 -10 12 -23z m-4 -210 c-22
-54 -36 -45 -36 24 0 46 3 58 14 54 7 -3 17 3 22 13 16 34 16 -53 0 -91z"/>
<path d="M1817 4053 c-4 -3 -8 -31 -8 -62 -1 -31 -4 -45 -6 -31 -6 36 -29 50
-64 40 -24 -7 -29 -6 -29 10 0 25 -24 29 -141 19 -166 -15 -147 13 -145 -216
0 -109 -2 -210 -7 -225 -6 -24 -3 -29 22 -43 43 -22 49 -19 57 22 7 35 8 36
17 15 11 -24 28 -28 56 -12 16 8 20 5 24 -19 5 -22 11 -28 29 -26 13 1 29 3
36 4 6 0 12 10 12 21 0 11 7 20 15 20 9 0 27 11 40 24 19 19 23 32 19 53 -5
26 -3 28 28 29 18 0 40 2 48 5 11 3 16 -5 18 -28 3 -32 2 -33 -32 -33 -30 0
-36 -4 -36 -21 0 -11 5 -29 10 -40 18 -32 108 -22 132 15 4 6 8 35 8 63 0 62
-28 380 -36 406 -5 17 -53 25 -67 10z m-187 -112 c0 -13 -105 -25 -122 -15 -9
6 -2 11 22 15 55 10 100 10 100 0z m100 -74 l0 -43 -40 4 c-49 5 -52 19 -5 28
28 5 35 11 35 30 0 13 2 24 5 24 3 0 5 -19 5 -43z m87 -19 c-2 -13 -4 -3 -4
22 0 25 2 35 4 23 2 -13 2 -33 0 -45z m-252 -18 c-3 -5 -17 -10 -31 -10 -13 0
-24 5 -24 10 0 6 14 10 31 10 17 0 28 -4 24 -10z m172 -52 c-3 -8 -6 -5 -6 6
-1 11 2 17 5 13 3 -3 4 -12 1 -19z m90 -50 c-2 -13 -4 -3 -4 22 0 25 2 35 4
23 2 -13 2 -33 0 -45z"/>
<path d="M3295 2880 c-11 -5 -378 -39 -815 -76 -437 -37 -796 -69 -798 -70 -1
-1 11 -158 28 -349 33 -376 38 -396 100 -448 56 -48 91 -52 293 -34 100 8 183
15 183 14 1 -1 17 -187 37 -414 38 -440 42 -458 102 -538 16 -21 55 -49 97
-70 58 -29 82 -35 132 -35 153 0 282 122 293 275 2 33 -11 233 -30 445 -19
212 -34 386 -32 388 1 1 80 10 176 18 195 18 251 36 287 96 41 67 41 86 10
449 -17 189 -33 347 -37 350 -3 4 -15 3 -26 -1z m-144 -182 c3 -12 45 -494 43
-497 -2 -2 -114 -13 -250 -25 -241 -20 -247 -22 -255 -44 -6 -15 6 -198 33
-500 23 -263 38 -490 34 -505 -8 -35 -60 -67 -108 -67 -27 0 -47 8 -70 29
l-32 28 -42 479 c-23 264 -45 491 -49 507 -9 33 13 32 -276 7 -127 -12 -236
-19 -243 -17 -7 2 -19 91 -33 248 -11 134 -20 245 -19 247 3 3 1180 109 1234
111 17 0 32 0 33 -1z"/>
</g>
</svg>
