<?xml version="1.0" encoding="UTF-8"?>
<svg id="a" data-name="图层 1" xmlns="http://www.w3.org/2000/svg" xmlns:xlink="http://www.w3.org/1999/xlink" viewBox="0 0 512 512">
  <defs>
    <style>
      .k {
        fill: #fff;
      }

      .l {
        fill: #174ea6;
      }

      .m {
        filter: url(#f);
      }

      .n {
        fill: url(#h);
        filter: url(#i);
      }

      .o {
        fill: #1a73e8;
      }

      .p {
        fill: url(#e);
      }

      .q {
        filter: url(#b);
      }
    </style>
    <filter id="b" data-name="drop-shadow-1" filterUnits="userSpaceOnUse">
      <feOffset dx="0" dy="0"/>
      <feGaussianBlur result="c" stdDeviation="4"/>
      <feFlood flood-color="#000" flood-opacity=".25"/>
      <feComposite in2="c" operator="in"/>
      <feComposite in="SourceGraphic"/>
    </filter>
    <linearGradient id="e" data-name="未命名的渐变 27" x1="66.21" y1="89.82" x2="448.32" y2="410.45" gradientUnits="userSpaceOnUse">
      <stop offset="0" stop-color="#8ab4f8"/>
      <stop offset="1" stop-color="#1a73e8"/>
    </linearGradient>
    <filter id="f" data-name="drop-shadow-3" filterUnits="userSpaceOnUse">
      <feOffset dx="0" dy="0"/>
      <feGaussianBlur result="g" stdDeviation="1"/>
      <feFlood flood-color="#000" flood-opacity=".25"/>
      <feComposite in2="g" operator="in"/>
      <feComposite in="SourceGraphic"/>
    </filter>
    <linearGradient id="h" data-name="未命名的渐变 218" x1="252.35" y1="227.86" x2="252.35" y2="423.26" gradientTransform="translate(-21.05 23.07) rotate(-5)" gradientUnits="userSpaceOnUse">
      <stop offset="0" stop-color="#fff"/>
      <stop offset=".1" stop-color="#4285f4"/>
      <stop offset="1" stop-color="#4285f4"/>
    </linearGradient>
    <filter id="i" data-name="drop-shadow-4" filterUnits="userSpaceOnUse">
      <feOffset dx="0" dy="2"/>
      <feGaussianBlur result="j" stdDeviation="1"/>
      <feFlood flood-color="#000" flood-opacity=".25"/>
      <feComposite in2="j" operator="in"/>
      <feComposite in="SourceGraphic"/>
    </filter>
  </defs>
  <g id="d" data-name="书本外壳" class="q">
    <rect class="l" x="101.95" y="39.51" width="302.88" height="442.45" rx="32.18" ry="32.18" transform="translate(-21.76 23.08) rotate(-5)"/>
    <g>
      <rect class="k" x="106.27" y="29.57" width="301.99" height="441.14" rx="32.18" ry="32.18" transform="translate(-20.82 23.37) rotate(-5)"/>
      <path class="p" d="M359.25,19.93v16c8.29,0,15.36,6.49,16.08,14.77l32.84,375.34c.78,8.89-5.82,16.75-14.71,17.53l-236.72,20.71c-.48,.04-.97,.06-1.45,.06-8.29,0-15.36-6.49-16.08-14.77L106.37,74.23c-.38-4.31,.95-8.5,3.72-11.81,2.78-3.31,6.68-5.34,10.99-5.72l236.72-20.71c.48-.04,.97-.06,1.45-.06V19.93m0,0c-.94,0-1.89,.04-2.84,.12L119.68,40.76c-17.71,1.55-30.8,17.16-29.25,34.86l32.84,375.34c1.47,16.75,15.52,29.38,32.02,29.38,.94,0,1.89-.04,2.84-.12l236.72-20.71c17.71-1.55,30.8-17.16,29.25-34.86L391.27,49.31c-1.47-16.75-15.52-29.38-32.02-29.38h0Z"/>
    </g>
  </g>
  <g class="m">
    <path class="o" d="M142.39,111.37l27.8-2.43,1.43,16.34-21.39,1.87,.3,3.47,.08,.92,6.62-.58-.27-3.04,7-.61,.27,3.04,7.76-.68,1.6,18.3c.18,2.03-.07,3.49-.74,4.39-.67,.9-1.89,1.42-3.66,1.58-.83,.07-1.67,.09-2.51,.05l-1.24-4.21,.78,8.9-6.08,.53-1.92-21.99-2.06,.18,1.52,17.43-5.54,.48-1.3-14.88c-.17,5.96-1.12,12.15-2.86,18.58l-6.44-3.54c1.35-3.76,2.21-7.64,2.59-11.63,.38-3.99,.34-8.66-.13-14.02l-1.62-18.46Zm21.97,8.53l-.35-3.96-14.66,1.28,.35,3.96,14.66-1.28Zm2.33,16.59l-2.39,.21,.99,11.35c.51,.03,.91,.03,1.2,0,.43-.04,.73-.17,.89-.41,.16-.23,.22-.62,.17-1.16l-.87-9.99Zm6.07-23.78l6.24-.55,2.77,31.71-6.24,.55-2.77-31.71Zm8.48-5.66l6.57-.57,3.73,42.62c.23,2.61-.12,4.51-1.06,5.73-.93,1.21-2.72,1.93-5.36,2.16-2.06,.18-4.14,.25-6.22,.22l-1.88-6.51c2.12,.11,4.13,.08,6.01-.09,.69-.06,1.18-.29,1.47-.68,.29-.39,.4-1.02,.33-1.89l-3.59-40.99Z"/>
    <path class="o" d="M213.26,135.97l-3.71-3.07,1.93,22.04-7.11,.62-1.71-19.54c-1.25,2.81-2.59,5.39-4.03,7.74l-3.87-7.38c1.05-1.73,2.18-4,3.37-6.81,1.2-2.8,2.2-5.61,3.01-8.42l-6.19,.54-.64-7.33,6.41-.56-.75-8.58,7.11-.62,.75,8.58,5.65-.49,.64,7.33-5.65,.49,.33,3.75c2.56,1.78,5.18,3.76,7.85,5.93l-3.38,5.77Zm33.39-2.26l.67,10.77c.07,1.67-.04,2.97-.34,3.89-.3,.92-.86,1.59-1.68,2.01-.82,.42-1.99,.69-3.51,.83l-3.26,.29c-2.1,.18-3.62-.18-4.55-1.08-.94-.9-1.51-2.58-1.73-5.05l-2.88-32.96-6.3,.55,1.06,12.16c.48,5.43,.68,9.65,.62,12.67-.06,3.02-.52,5.81-1.37,8.38-.85,2.57-2.33,5.43-4.42,8.57l-6.98-4.75c1.92-2.61,3.26-4.86,4-6.75,.75-1.89,1.16-4.06,1.24-6.51,.08-2.45-.1-6.12-.52-11l-1.73-19.82,20.96-1.83,3.33,38c.07,.76,.15,1.25,.24,1.48,.09,.23,.25,.33,.46,.32l1.36-.12c.18-.02,.29-.16,.34-.44,.05-.28,.06-.76,.04-1.45l-.56-8.92,5.54,.77Z"/>
    <path class="o" d="M268.39,126.39c-1.44,.64-2.93,1.28-4.48,1.92l1.3,14.88c.22,2.46-.16,4.23-1.12,5.32-.96,1.09-2.73,1.76-5.29,2.02-1.41,.12-2.83,.14-4.26,.05l-2.02-6.77c1.21,.11,2.38,.12,3.5,.02,.54-.05,.93-.23,1.16-.57,.23-.33,.3-.89,.23-1.69l-.88-10.04c-2.32,1.04-3.89,1.76-4.73,2.17l-2.11-7.26c1.69-.66,3.75-1.51,6.18-2.56l-.7-7.98-5,.44-.63-7.17,5-.44-.69-7.93,7.6-.67,.69,7.93,4.02-.35,.63,7.17-4.02,.35,.47,5.38,3.21-1.48,1.95,7.27Zm30.16-19.16l.02,2.13c-.01,.29-.02,.61-.03,.96,0,.35,0,.74,0,1.18,0,1.57-.2,2.81-.58,3.72-.38,.91-1,1.59-1.87,2.05-.87,.46-2.1,.8-3.69,1.01-2.34,.35-4.98,.65-7.91,.91-3.19,.28-6.07,.46-8.65,.54-1.71,.08-3.08-.09-4.12-.49-1.04-.4-1.83-1.13-2.38-2.17-.55-1.05-.91-2.53-1.07-4.45l-1.12-12.76,7.06-.62,.4,4.56c3.31-.95,6.64-1.98,9.99-3.09,3.35-1.11,6.06-2.12,8.13-3.04l2.55,6.67c-1.9,.75-4.03,1.48-6.38,2.17s-5.55,1.63-9.6,2.78l-4.11,1.18,.02,.22c.08,.91,.24,1.53,.49,1.87,.25,.34,.63,.51,1.14,.5,2.07-.07,4.14-.2,6.2-.38,2.24-.2,4.28-.45,6.12-.75,1.04-.16,1.7-.44,1.98-.83,.28-.39,.37-1.09,.28-2.1l-.11-2.45,7.23,.68Zm-20.15,41.7l-6.89,.6-2.37-27.04,27.91-2.44,2.36,26.98-7.22,.63-.2-2.23-13.79,1.21,.2,2.28Zm12.25-18.8l-.26-2.99-13.79,1.21,.26,2.99,13.79-1.21Zm-13.27,7.18l.25,2.82,13.79-1.21-.25-2.82-13.79,1.21Z"/>
    <path class="o" d="M351.77,102.73l-20.25,1.77,.22,2.55,18.89-1.65,2.55,29.1c.18,2.03,.11,3.62-.21,4.78-.32,1.16-.95,2.02-1.88,2.57-.94,.56-2.26,.91-3.96,1.06-2.35,.21-4.93,.3-7.74,.29l-2.01-6.72c2.45,.11,4.5,.1,6.12-.04,.98-.09,1.6-.31,1.88-.69,.28-.37,.38-.99,.3-1.86l-1.85-21.12-7.6,.67,3.38,1.67-1.96,3.29,4.07-.36,.52,5.97-9.39,.82,.2,2.33,10.1-.88,.51,5.86-10.1,.88,.72,8.2-7,.61-.72-8.2-10.15,.89-.51-5.86,10.15-.89-.2-2.33-9.45,.83-.52-5.97,4.23-.37c-1.21-1.35-2.02-2.21-2.41-2.58l2.73-2.54-7.33,.64,2.61,29.81-7.38,.65-3.2-36.54,19.11-1.67-.22-2.55-20.42,1.79-.61-6.95,20.42-1.79-.35-4.02,7.49-.66,.35,4.02,20.25-1.77,.61,6.95Zm-22.04,16.37c1.12-1.81,2.15-3.6,3.09-5.36l-9.01,.79c.28,.27,1.62,1.65,4.03,4.13l-.71,.66,2.61-.23Z"/>
  </g>
  <path class="n" d="M265.29,422.79c-14.57,0-27.02-11.18-28.31-25.96l-7.02-80.26-35.18,3.08c-4.8,.42-9.48-1.06-13.17-4.15-3.69-3.1-5.96-7.45-6.38-12.25l-5.96-68.09,161.85-14.16,5.96,68.09c.87,9.91-6.49,18.68-16.41,19.55l-34.05,2.98,7.02,80.26c.66,7.57-1.66,14.94-6.54,20.76-4.88,5.82-11.74,9.39-19.31,10.05-.84,.07-1.67,.11-2.5,.11Zm-20.79-123.55l8.42,96.2c.6,6.83,6.67,11.91,13.47,11.31,3.31-.29,6.31-1.85,8.44-4.4s3.15-5.77,2.86-9.08l-8.42-96.2,49.99-4.37c1.12-.1,1.96-1.09,1.86-2.22l-4.56-52.15-129.97,11.37,4.56,52.15c.06,.7,.43,1.14,.72,1.39,.3,.25,.79,.53,1.5,.47l51.12-4.47Z"/>
</svg>