<?xml version="1.0" encoding="utf-8"?>
<!-- Generator: Adobe Illustrator 26.4.1, SVG Export Plug-In . SVG Version: 6.00 Build 0)  -->
<svg version="1.1" id="图层_1" xmlns="http://www.w3.org/2000/svg" xmlns:xlink="http://www.w3.org/1999/xlink" x="0px" y="0px"
	 viewBox="0 0 200 50" style="enable-background:new 0 0 200 50;" xml:space="preserve">
<style type="text/css">
	.st0{fill:#167C80;}
</style>
<path class="st0" d="M65.1,32.1c-0.6,0-1.1-0.5-1.1-1.1c0,0,0-0.1,0-0.1V18.1h2.8v11.6H73v2.4H65.1z M81.4,32.1v-14h2.8v14H81.4z
	 M103.1,18.1h2.6v13.2c0,0.3-0.2,0.5-0.4,0.6c-0.3,0.2-0.7,0.3-1,0.2c-0.3,0-0.7,0-1-0.2c-0.3-0.1-0.5-0.4-0.7-0.6l-6.2-8.7v9.4
	h-2.6V19.2c0-0.3,0.1-0.7,0.4-0.8c0.3-0.2,0.7-0.3,1.1-0.2c0.4,0,0.8,0.1,1.1,0.2c0.3,0.3,0.6,0.6,0.8,0.9l5.8,8.2V18.1z
	 M124.5,20.5h-6.4v3.3h5.8v2.4h-5.8v3.5h6.2v2.5h-9.1V19.3c0-0.3,0.1-0.6,0.3-0.8c0.2-0.2,0.5-0.3,0.8-0.3h8L124.5,20.5z
	 M142.2,32.1l-1.2-3.5H136l-1.2,3.5h-2.9l4.7-12.9c0.6-1,1.9-1.4,2.9-0.9c0.4,0.2,0.7,0.5,0.9,0.9l4.7,12.9H142.2z M136.8,26.3h3.5
	l-1.8-5.2L136.8,26.3z M159,32.3c-1.9,0.1-3.7-0.6-5-1.9c-1.3-1.4-1.9-3.3-1.8-5.2c-0.1-2,0.6-3.9,2-5.3c1.4-1.4,3.2-2.1,5.2-2
	c1.3,0,2.5,0.3,3.6,0.9c0.9,0.6,1.6,1.4,2.1,2.3l-2.2,1.2c-0.7-1.3-2.1-2.1-3.6-2c-1.2,0-2.3,0.4-3.1,1.3c-0.8,1-1.2,2.2-1.1,3.5
	c-0.1,1.3,0.3,2.5,1.1,3.5c0.7,0.9,1.8,1.3,2.9,1.3c1,0,2-0.3,2.8-1c0.7-0.6,1.1-1.5,1.1-2.4h-3.5v-2.2h6.3v1.5
	c0.1,1.7-0.6,3.4-1.9,4.6C162.5,31.7,160.8,32.3,159,32.3L159,32.3z M184,20.5h-6.4v3.3h5.8v2.4h-5.8v3.5h6.2v2.4h-9.1V19.3
	c0-0.3,0.1-0.6,0.4-0.8c0.2-0.2,0.6-0.4,0.9-0.4h8L184,20.5z"/>
<path class="st0" d="M52,25.1c-1.1,0-2.2,0.5-3,1.3l-0.2-0.1c-1.5-0.6-3.1-1.1-4.8-1.4l0,0c0-4.4-3.6-8-8-8s-8,3.6-8,8h-0.2
	c-1.6,0.3-3.1,0.8-4.6,1.4L23,26.4c-1.5-1.6-4-1.8-5.6-0.3c-1.6,1.5-1.8,4-0.3,5.6c1.5,1.6,4,1.8,5.6,0.3c1.1-1,1.5-2.5,1.2-3.9l0,0
	c1.4-0.5,2.8-1,4.3-1.3c1,4.3,5.3,7,9.6,5.9c2.9-0.7,5.2-3,5.9-5.9c1.5,0.3,2.9,0.7,4.3,1.3l0,0c-0.5,2.1,0.8,4.3,2.9,4.8
	c2.1,0.5,4.3-0.8,4.8-2.9s-0.8-4.3-2.9-4.8C52.6,25.1,52.3,25.1,52,25.1z M20,31.1c-1.1,0-2-0.9-2-2s0.9-2,2-2c1.1,0,2,0.9,2,2
	S21.1,31.1,20,31.1z M36,31.1c-3.3,0-6-2.7-6-6s2.7-6,6-6s6,2.7,6,6S39.3,31.1,36,31.1z M52,31.1c-1.1,0-2-0.9-2-2s0.9-2,2-2
	s2,0.9,2,2S53.1,31.1,52,31.1z M39,25.1c0,1.7-1.3,3-3,3c-1.7,0-3-1.3-3-3s1.3-3,3-3C37.7,22.1,39,23.4,39,25.1z"/>
</svg>
